<?xml version="1.0" encoding="UTF-8"?>
<!DOCTYPE svg PUBLIC "-//W3C//DTD SVG 1.1//EN" "http://www.w3.org/Graphics/SVG/1.1/DTD/svg11.dtd">
<svg xmlns="http://www.w3.org/2000/svg" version="1.1" width="512px" height="512px" style="shape-rendering:geometricPrecision; text-rendering:geometricPrecision; image-rendering:optimizeQuality; fill-rule:evenodd; clip-rule:evenodd" xmlns:xlink="http://www.w3.org/1999/xlink">
<g><path style="opacity:0.976" fill="#000000" d="M 70.5,15.5 C 161.167,15.3333 251.834,15.5 342.5,16C 344.552,16.9299 346.052,18.4299 347,20.5C 385.333,84.1667 423.667,147.833 462,211.5C 462.667,213.833 462.667,216.167 462,218.5C 451.301,235.702 440.801,253.035 430.5,270.5C 434.802,277.965 439.302,285.299 444,292.5C 444.667,294.833 444.667,297.167 444,299.5C 404.959,364.416 365.792,429.25 326.5,494C 235.248,495.661 143.914,495.995 52.5,495C 47.8053,490.651 47.3053,485.818 51,480.5C 67.3592,458.975 83.5259,437.308 99.5,415.5C 89.445,414.925 79.445,414.092 69.5,413C 66.1966,409.205 65.6966,405.038 68,400.5C 101.026,356.308 133.859,311.974 166.5,267.5C 127.14,214.641 87.9738,161.641 49,108.5C 47.4315,103.375 48.9315,99.5414 53.5,97C 74.8333,96.6667 96.1667,96.3333 117.5,96C 100.667,73.1667 83.8333,50.3333 67,27.5C 65.5934,22.6427 66.76,18.6427 70.5,15.5 Z M 74.5,114.5 C 154.666,113.334 234.999,113.168 315.5,114C 352.559,174.622 389.226,235.456 425.5,296.5C 389.226,357.544 352.559,418.378 315.5,479C 234.833,479.667 154.167,479.667 73.5,479C 117.789,419.589 161.955,360.089 206,300.5C 207.186,295.632 206.186,291.298 203,287.5C 159.918,229.932 117.085,172.266 74.5,114.5 Z"/></g>
</svg>
