<?xml version="1.0" encoding="UTF-8"?>
<!DOCTYPE svg PUBLIC "-//W3C//DTD SVG 1.1//EN" "http://www.w3.org/Graphics/SVG/1.1/DTD/svg11.dtd">
<svg xmlns="http://www.w3.org/2000/svg" version="1.1" width="512px" height="512px" style="shape-rendering:geometricPrecision; text-rendering:geometricPrecision; image-rendering:optimizeQuality; fill-rule:evenodd; clip-rule:evenodd" xmlns:xlink="http://www.w3.org/1999/xlink">
<g><path style="opacity:0.99" fill="#000002" d="M 301.5,-0.5 C 319.167,-0.5 336.833,-0.5 354.5,-0.5C 365.677,0.598822 377.011,1.59882 388.5,2.5C 388.5,29.8333 388.5,57.1667 388.5,84.5C 367.811,84.1949 347.144,84.6949 326.5,86C 307.162,89.3408 296.995,100.841 296,120.5C 295.5,142.497 295.333,164.497 295.5,186.5C 325.5,186.5 355.5,186.5 385.5,186.5C 381.669,217.147 378.002,247.814 374.5,278.5C 348.167,278.5 321.833,278.5 295.5,278.5C 295.5,356.167 295.5,433.833 295.5,511.5C 263.833,511.5 232.167,511.5 200.5,511.5C 200.5,433.833 200.5,356.167 200.5,278.5C 174.5,278.5 148.5,278.5 122.5,278.5C 122.5,247.833 122.5,217.167 122.5,186.5C 148.5,186.5 174.5,186.5 200.5,186.5C 200.116,157.146 200.616,127.812 202,98.5C 210.488,40.5113 243.655,7.51131 301.5,-0.5 Z"/></g>
</svg>
