<?xml version="1.0" encoding="UTF-8"?>
<!DOCTYPE svg PUBLIC "-//W3C//DTD SVG 1.1//EN" "http://www.w3.org/Graphics/SVG/1.1/DTD/svg11.dtd">
<svg xmlns="http://www.w3.org/2000/svg" version="1.1" width="512px" height="512px" style="shape-rendering:geometricPrecision; text-rendering:geometricPrecision; image-rendering:optimizeQuality; fill-rule:evenodd; clip-rule:evenodd" xmlns:xlink="http://www.w3.org/1999/xlink">
<g><path style="opacity:0.981" fill="#000000" d="M 237.5,-0.5 C 253.167,-0.5 268.833,-0.5 284.5,-0.5C 344.315,5.15408 393.148,31.1541 431,77.5C 457.128,114.34 467.795,155.34 463,200.5C 457.973,258.4 433.139,305.567 388.5,342C 351.01,368.832 309.677,377.498 264.5,368C 246.206,363.277 231.373,353.444 220,338.5C 213.178,362.789 206.511,387.123 200,411.5C 187,447.602 169.166,480.935 146.5,511.5C 144.833,511.5 143.167,511.5 141.5,511.5C 137.206,492.481 134.706,473.147 134,453.5C 133.251,438.809 133.584,424.142 135,409.5C 147.868,353.36 161.368,297.36 175.5,241.5C 165.339,215.659 163.839,189.325 171,162.5C 180.286,136.032 198.786,121.366 226.5,118.5C 253.183,120.854 266.85,135.521 267.5,162.5C 266.477,175.783 263.977,188.783 260,201.5C 254.131,219.439 248.465,237.439 243,255.5C 232.45,289.571 244.283,311.405 278.5,321C 310.781,323.274 336.948,311.774 357,286.5C 387.679,243.432 396.679,196.099 384,144.5C 370.554,99.3876 341.054,70.8876 295.5,59C 247.237,47.8197 202.571,55.8197 161.5,83C 114.636,121.259 98.8031,169.759 114,228.5C 118.311,240.452 124.644,251.119 133,260.5C 133.958,262.199 134.458,264.033 134.5,266C 131.704,279.683 128.204,293.183 124,306.5C 121.79,309.29 118.956,310.123 115.5,309C 98.7182,301.892 85.2182,290.726 75,275.5C 47.5737,233.53 40.2404,188.196 53,139.5C 72.9672,74.8658 115.134,32.0324 179.5,11C 198.607,5.31978 217.94,1.48644 237.5,-0.5 Z"/></g>
</svg>
