<?xml version="1.0" encoding="UTF-8"?>
<!DOCTYPE svg PUBLIC "-//W3C//DTD SVG 1.1//EN" "http://www.w3.org/Graphics/SVG/1.1/DTD/svg11.dtd">
<svg xmlns="http://www.w3.org/2000/svg" version="1.1" width="512px" height="512px" style="shape-rendering:geometricPrecision; text-rendering:geometricPrecision; image-rendering:optimizeQuality; fill-rule:evenodd; clip-rule:evenodd" xmlns:xlink="http://www.w3.org/1999/xlink">
<g><path style="opacity:0.982" fill="#000000" d="M 275.5,72.5 C 301.948,76.8563 328.282,81.8563 354.5,87.5C 367.159,71.6703 382.493,68.5037 400.5,78C 416.575,93.4729 417.575,109.806 403.5,127C 392.79,134.918 381.123,136.585 368.5,132C 358.492,126.81 352.826,118.643 351.5,107.5C 329.864,102.872 308.198,98.7058 286.5,95C 279.518,126.409 272.851,157.909 266.5,189.5C 309.556,190.187 348.889,202.52 384.5,226.5C 402.065,212.341 420.732,210.841 440.5,222C 459.531,236.771 465.031,255.604 457,278.5C 452.771,287.396 446.438,294.396 438,299.5C 439.361,336.936 425.861,367.769 397.5,392C 359.708,421.379 316.708,436.713 268.5,438C 220.427,440.482 175.761,429.482 134.5,405C 115.62,393.12 100.453,377.62 89,358.5C 79.4199,340.032 75.0866,320.366 76,299.5C 52.8553,285.407 45.522,265.407 54,239.5C 65.4278,217.792 83.2611,209.292 107.5,214C 114.735,215.949 121.069,219.449 126.5,224.5C 162.504,200.611 202.171,187.944 245.5,186.5C 253.9,151.003 261.734,115.336 269,79.5C 270.018,75.9853 272.185,73.652 275.5,72.5 Z M 177.5,259.5 C 197.803,259.472 209.469,269.472 212.5,289.5C 210.553,307.947 200.386,318.28 182,320.5C 160.602,316.771 150.936,304.104 153,282.5C 156.887,270.108 165.054,262.442 177.5,259.5 Z M 318.5,261.5 C 336.778,259.631 348.944,267.298 355,284.5C 357.743,305.024 349.076,317.69 329,322.5C 305.922,320.763 294.922,308.429 296,285.5C 299.254,273.416 306.754,265.416 318.5,261.5 Z M 183.5,361.5 C 184.873,361.343 186.207,361.51 187.5,362C 218.932,383.009 252.932,388.676 289.5,379C 292.5,378 295.5,377 298.5,376C 307.855,371.658 316.855,366.825 325.5,361.5C 333.486,363.455 335.319,367.788 331,374.5C 300.24,395.72 266.406,402.886 229.5,396C 210.775,392.544 193.942,385.044 179,373.5C 176.821,368.181 178.321,364.181 183.5,361.5 Z"/></g>
</svg>
