<?xml version="1.0" encoding="UTF-8"?>
<!DOCTYPE svg PUBLIC "-//W3C//DTD SVG 1.1//EN" "http://www.w3.org/Graphics/SVG/1.1/DTD/svg11.dtd">
<svg xmlns="http://www.w3.org/2000/svg" version="1.1" width="512px" height="512px" style="shape-rendering:geometricPrecision; text-rendering:geometricPrecision; image-rendering:optimizeQuality; fill-rule:evenodd; clip-rule:evenodd" xmlns:xlink="http://www.w3.org/1999/xlink">
<g><path style="opacity:0.993" fill="#000000" d="M 511.5,380.5 C 511.5,384.167 511.5,387.833 511.5,391.5C 506.504,399.357 499.504,404.857 490.5,408C 475.269,413.647 459.602,417.647 443.5,420C 440.951,427.695 438.784,435.528 437,443.5C 435.5,447.667 432.667,450.5 428.5,452C 413.833,451.169 399.166,450.002 384.5,448.5C 369.69,447.627 356.023,451.127 343.5,459C 328.967,469.853 313.634,479.519 297.5,488C 284.106,493.844 270.106,496.344 255.5,495.5C 234.041,496.385 214.374,490.885 196.5,479C 182.2,468.047 166.867,458.714 150.5,451C 132.439,447.502 114.439,447.836 96.5,452C 91.5,452.667 86.5,452.667 81.5,452C 77.9421,450.108 75.4421,447.275 74,443.5C 72.2161,435.528 70.0495,427.695 67.5,420C 50.3334,417.542 33.6668,413.208 17.5,407C 9.34875,403.676 3.34875,398.176 -0.5,390.5C -0.5,387.167 -0.5,383.833 -0.5,380.5C 1.03308,378.645 2.69974,376.812 4.5,375C 47.017,366.142 79.1837,342.975 101,305.5C 106.674,296.653 110.841,287.153 113.5,277C 112.12,269.948 108.12,264.948 101.5,262C 93.3191,258.606 84.9857,255.606 76.5,253C 67.6007,249.752 60.1007,244.585 54,237.5C 48.1063,225.507 50.9396,216.007 62.5,209C 74.1415,203.914 85.4748,204.581 96.5,211C 103.075,213.287 109.575,213.454 116,211.5C 115.557,193.012 115.057,174.512 114.5,156C 111.825,106.021 130.825,66.6873 171.5,38C 211.325,15.0619 253.658,9.0619 298.5,20C 348.588,34.7531 380.421,67.2531 394,117.5C 395.908,130.427 396.741,143.427 396.5,156.5C 395.901,174.844 395.401,193.177 395,211.5C 396.785,212.24 398.618,212.907 400.5,213.5C 411.167,210.5 421.833,207.5 432.5,204.5C 442.189,205.428 450.356,209.428 457,216.5C 462.714,228.042 460.214,237.542 449.5,245C 444.659,247.921 439.659,250.588 434.5,253C 426.014,255.606 417.681,258.606 409.5,262C 397.636,267.925 394.803,276.758 401,288.5C 415.504,321.003 438.337,345.836 469.5,363C 481.371,368.401 493.704,372.401 506.5,375C 508.3,376.812 509.967,378.645 511.5,380.5 Z"/></g>
</svg>
