<?xml version="1.0" encoding="UTF-8"?>
<!DOCTYPE svg PUBLIC "-//W3C//DTD SVG 1.1//EN" "http://www.w3.org/Graphics/SVG/1.1/DTD/svg11.dtd">
<svg xmlns="http://www.w3.org/2000/svg" version="1.1" width="512px" height="512px" style="shape-rendering:geometricPrecision; text-rendering:geometricPrecision; image-rendering:optimizeQuality; fill-rule:evenodd; clip-rule:evenodd" xmlns:xlink="http://www.w3.org/1999/xlink">
<g><path style="opacity:0.975" fill="#000000" d="M 235.5,-0.5 C 251.5,-0.5 267.5,-0.5 283.5,-0.5C 385.267,8.77361 450.934,62.2736 480.5,160C 480.095,160.945 479.428,161.612 478.5,162C 464.191,165.994 449.858,169.827 435.5,173.5C 415.336,98.5657 366.669,56.399 289.5,47C 160.34,36.324 89.84,95.4907 78,224.5C 74.9805,260.521 77.3138,296.188 85,331.5C 104.179,414.011 156.012,458.511 240.5,465C 277.702,468.56 313.368,462.894 347.5,448C 373.387,434.446 392.887,414.613 406,388.5C 418.517,355.944 413.85,326.277 392,299.5C 386.213,293.543 379.713,288.543 372.5,284.5C 358.652,364.85 311.318,399.683 230.5,389C 204.002,383.469 183.168,369.636 168,347.5C 149.619,309.959 154.786,276.126 183.5,246C 200.954,231.611 220.954,222.611 243.5,219C 255.929,217.143 268.429,216.309 281,216.5C 296.236,216.701 311.403,217.535 326.5,219C 319.6,182.698 297.6,164.532 260.5,164.5C 235.997,163.92 216.331,173.254 201.5,192.5C 188.789,184.483 176.455,175.983 164.5,167C 180.608,142.266 203.275,126.932 232.5,121C 318.921,109.437 366.421,146.937 375,233.5C 443.343,264.852 469.676,317.519 454,391.5C 441.325,429.844 417.825,459.677 383.5,481C 352.783,498.76 319.783,508.926 284.5,511.5C 268.167,511.5 251.833,511.5 235.5,511.5C 137.304,502.796 73.4705,451.463 44,357.5C 26.0001,289.497 26.0001,221.497 44,153.5C 73.4705,59.5373 137.304,8.20401 235.5,-0.5 Z M 265.5,262.5 C 286.264,261.605 306.764,263.272 327,267.5C 326.507,289.312 319.841,308.979 307,326.5C 293.497,339.894 277.164,346.227 258,345.5C 239.179,346.01 223.179,339.676 210,326.5C 197.834,301.631 204.334,283.131 229.5,271C 241.223,266.427 253.223,263.593 265.5,262.5 Z"/></g>
</svg>
