<?xml version="1.0" encoding="UTF-8"?>
<!DOCTYPE svg PUBLIC "-//W3C//DTD SVG 1.1//EN" "http://www.w3.org/Graphics/SVG/1.1/DTD/svg11.dtd">
<svg xmlns="http://www.w3.org/2000/svg" version="1.1" width="512px" height="512px" style="shape-rendering:geometricPrecision; text-rendering:geometricPrecision; image-rendering:optimizeQuality; fill-rule:evenodd; clip-rule:evenodd" xmlns:xlink="http://www.w3.org/1999/xlink">
<g><path style="opacity:0.986" fill="#000000" d="M 266.5,-0.5 C 294.833,-0.5 323.167,-0.5 351.5,-0.5C 354.781,58.9373 384.114,99.4373 439.5,121C 452.86,125.116 466.526,127.282 480.5,127.5C 480.5,155.5 480.5,183.5 480.5,211.5C 432.737,211.412 389.903,197.079 352,168.5C 351.667,234.5 351.333,300.5 351,366.5C 344.885,420.595 318.718,461.762 272.5,490C 251.202,501.935 228.535,509.101 204.5,511.5C 195.167,511.5 185.833,511.5 176.5,511.5C 107.197,502.034 60.6965,464.367 37,398.5C 20.075,329.614 38.575,272.447 92.5,227C 129.222,200.402 170.222,189.902 215.5,195.5C 215.5,224.167 215.5,252.833 215.5,281.5C 173.425,271.458 142.258,285.458 122,323.5C 109.532,359.142 117.699,388.975 146.5,413C 169.536,428.832 194.202,431.832 220.5,422C 246.72,409.745 261.887,389.245 266,360.5C 266.5,240.167 266.667,119.834 266.5,-0.5 Z"/></g>
</svg>
