<?xml version="1.0" encoding="UTF-8"?>
<!DOCTYPE svg PUBLIC "-//W3C//DTD SVG 1.1//EN" "http://www.w3.org/Graphics/SVG/1.1/DTD/svg11.dtd">
<svg xmlns="http://www.w3.org/2000/svg" version="1.1" width="512px" height="512px" style="shape-rendering:geometricPrecision; text-rendering:geometricPrecision; image-rendering:optimizeQuality; fill-rule:evenodd; clip-rule:evenodd" xmlns:xlink="http://www.w3.org/1999/xlink">
<g><path style="opacity:0.991" fill="#000000" d="M 209.5,-0.5 C 235.833,-0.5 262.167,-0.5 288.5,-0.5C 288.5,42.8333 288.5,86.1667 288.5,129.5C 323.5,129.5 358.5,129.5 393.5,129.5C 393.5,155.5 393.5,181.5 393.5,207.5C 358.5,207.5 323.5,207.5 288.5,207.5C 288.333,263.168 288.5,318.834 289,374.5C 290.94,397.435 303.107,411.268 325.5,416C 344.412,417.727 362.579,414.894 380,407.5C 388.401,432.204 396.901,456.871 405.5,481.5C 402.266,485.903 398.266,489.403 393.5,492C 373.187,502.239 351.854,508.739 329.5,511.5C 316.5,511.5 303.5,511.5 290.5,511.5C 247.335,507.67 212.169,489.004 185,455.5C 170.794,435.743 162.127,413.743 159,389.5C 158.5,328.834 158.333,268.168 158.5,207.5C 140.833,207.5 123.167,207.5 105.5,207.5C 105.167,185.157 105.5,162.823 106.5,140.5C 151.264,123.569 181.764,92.5692 198,47.5C 202.793,31.6624 206.627,15.6624 209.5,-0.5 Z"/></g>
</svg>
