<?xml version="1.0" encoding="UTF-8"?>
<!DOCTYPE svg PUBLIC "-//W3C//DTD SVG 1.1//EN" "http://www.w3.org/Graphics/SVG/1.1/DTD/svg11.dtd">
<svg xmlns="http://www.w3.org/2000/svg" version="1.1" width="512px" height="512px" style="shape-rendering:geometricPrecision; text-rendering:geometricPrecision; image-rendering:optimizeQuality; fill-rule:evenodd; clip-rule:evenodd" xmlns:xlink="http://www.w3.org/1999/xlink">
<g><path style="opacity:0.986" fill="#000000" d="M -0.5,207.5 C -0.5,196.5 -0.5,185.5 -0.5,174.5C 8.72347,125.431 34.7235,87.9313 77.5,62C 139.216,27.6128 203.549,21.9461 270.5,45C 316.231,61.9295 350.064,92.0961 372,135.5C 375.532,143.595 378.365,151.928 380.5,160.5C 327.775,155.676 278.775,166.843 233.5,194C 193.44,219.947 169.274,256.447 161,303.5C 160.333,313.833 160.333,324.167 161,334.5C 162.112,339.828 162.779,345.162 163,350.5C 147.188,347.838 131.688,343.838 116.5,338.5C 93.9589,348.069 71.4589,357.736 49,367.5C 48.5,367.167 48,366.833 47.5,366.5C 55.6359,350.395 63.6359,334.228 71.5,318C 59.4687,308.648 47.9687,298.481 37,287.5C 16.6585,264.485 4.1585,237.818 -0.5,207.5 Z M 121.5,104.5 C 141.979,103.478 151.479,113.145 150,133.5C 142.858,149.995 131.024,154.495 114.5,147C 103.836,137.953 101.669,127.12 108,114.5C 111.555,109.763 116.055,106.43 121.5,104.5 Z M 249.5,104.5 C 269.979,103.478 279.479,113.145 278,133.5C 270.858,149.995 259.024,154.495 242.5,147C 231.836,137.953 229.669,127.12 236,114.5C 239.555,109.763 244.055,106.43 249.5,104.5 Z"/></g>
<g><path style="opacity:0.988" fill="#000000" d="M 511.5,305.5 C 511.5,314.833 511.5,324.167 511.5,333.5C 506.61,359.61 494.61,381.944 475.5,400.5C 467.744,407.927 459.41,414.593 450.5,420.5C 460.167,439.833 469.833,459.167 479.5,478.5C 479,478.833 478.5,479.167 478,479.5C 450.5,467.667 423,455.833 395.5,444C 386.795,444.338 378.129,445.338 369.5,447C 318.679,451.636 273.346,438.302 233.5,407C 187.912,364.972 179.412,316.472 208,261.5C 231.281,228.261 262.781,206.761 302.5,197C 356.07,184.176 406.404,191.842 453.5,220C 484.938,240.402 504.272,268.902 511.5,305.5 Z M 297.5,264.5 C 317.979,263.478 327.479,273.145 326,293.5C 318.858,309.995 307.024,314.495 290.5,307C 279.836,297.953 277.669,287.12 284,274.5C 287.555,269.763 292.055,266.43 297.5,264.5 Z M 393.5,264.5 C 413.979,263.478 423.479,273.145 422,293.5C 414.858,309.995 403.024,314.495 386.5,307C 375.836,297.953 373.669,287.12 380,274.5C 383.555,269.763 388.055,266.43 393.5,264.5 Z"/></g>
</svg>
